# xmcd
#
# Track frame offsets: 
#        150
#        18609
#        41166
#        67002
#        86091
#        106543
#        124153
#        149046
#        168231
#        185665
#        203610
#
# Disc length: 3040 seconds
#
# Revision: 1
# Processed by: cddbd v1.5.2PL0 Copyright (c) Steve Scherf et al.
# Submitted via: ExactAudioCopy v1.3
#
DISCID=9e0bde0b
DTITLE=Mike Zito - Greyhound
DYEAR=2011
DGENRE=Texas Blues, Blues Rock
TTITLE0=Roll On 
TTITLE1=Greyhound
TTITLE2=Judgement Day 
TTITLE3=Show Me The Way 
TTITLE4=The Hard Way 
TTITLE5=Motel Blues 
TTITLE6=Stay
TTITLE7=Until The Day I Die 
TTITLE8=Hello Midnight 
TTITLE9=The Southern Side 
TTITLE10=Please Please Please 
EXTD=YEAR: 2011
EXTT0=
EXTT1=
EXTT2=
EXTT3=
EXTT4=
EXTT5=
EXTT6=
EXTT7=
EXTT8=
EXTT9=
EXTT10=
PLAYORDER=
